<?xml version="1.0" encoding="UTF-8" standalone="no"?>
<svg
   id="svg11"
   xml:space="preserve"
   enable-background="new 0 0 200 200"
   viewBox="0 0 200 200"
   y="0px"
   x="0px"
   version="1.1"
   sodipodi:docname="code_icon copy.svg"
   inkscape:version="1.3 (0e150ed, 2023-07-21)"
   xmlns:inkscape="http://www.inkscape.org/namespaces/inkscape"
   xmlns:sodipodi="http://sodipodi.sourceforge.net/DTD/sodipodi-0.dtd"
   xmlns="http://www.w3.org/2000/svg"
   xmlns:svg="http://www.w3.org/2000/svg"
   xmlns:rdf="http://www.w3.org/1999/02/22-rdf-syntax-ns#"
   xmlns:cc="http://creativecommons.org/ns#"
   xmlns:dc="http://purl.org/dc/elements/1.1/"><sodipodi:namedview
     id="namedview1"
     pagecolor="#ffffff"
     bordercolor="#000000"
     borderopacity="0.25"
     inkscape:showpageshadow="2"
     inkscape:pageopacity="0.0"
     inkscape:pagecheckerboard="0"
     inkscape:deskcolor="#d1d1d1"
     inkscape:zoom="4.4691037"
     inkscape:cx="116.01879"
     inkscape:cy="87.937096"
     inkscape:window-width="3840"
     inkscape:window-height="2107"
     inkscape:window-x="0"
     inkscape:window-y="25"
     inkscape:window-maximized="1"
     inkscape:current-layer="svg11" /><metadata
     id="metadata15"><rdf:RDF><cc:Work
         rdf:about=""><dc:format>image/svg+xml</dc:format><dc:type
           rdf:resource="http://purl.org/dc/dcmitype/StillImage" /></cc:Work></rdf:RDF></metadata><defs
     id="defs145285" /><linearGradient
     spreadMethod="pad"
     y2="30%"
     x2="-10%"
     y1="120%"
     x1="30%"
     id="3d_gradient2-logo-19f223e0-f2b4-4399-a260-7a33bc3547c6"><stop
       id="stop145262"
       stop-opacity="1"
       stop-color="#ffffff"
       offset="0%" /><stop
       id="stop145264"
       stop-opacity="1"
       stop-color="#000000"
       offset="100%" /></linearGradient><linearGradient
     gradientTransform="rotate(-30)"
     spreadMethod="pad"
     y2="30%"
     x2="-10%"
     y1="120%"
     x1="30%"
     id="3d_gradient3-logo-19f223e0-f2b4-4399-a260-7a33bc3547c6"><stop
       id="stop145267"
       stop-opacity="1"
       stop-color="#ffffff"
       offset="0%" /><stop
       id="stop145269"
       stop-opacity="1"
       stop-color="#cccccc"
       offset="50%" /><stop
       id="stop145271"
       stop-opacity="1"
       stop-color="#000000"
       offset="100%" /></linearGradient><path
     stroke-miterlimit="2"
     d="m 99.654521,199.6688 c 27.701779,0 51.086429,-9.7136 70.513679,-29.14084 19.42722,-19.42724 29.5006,-42.81188 29.5006,-70.51367 0,-27.7018 -10.07338,-51.08644 -29.5006,-70.513673 C 150.74095,10.073382 127.3563,5e-7 99.654521,5e-7 71.952721,5e-7 48.568091,10.073382 29.140851,29.500617 9.7136185,48.92785 5e-7,72.31249 5e-7,100.01429 c 0,27.70179 9.713618,51.08643 29.1408505,70.51367 19.42724,19.42724 42.81187,29.14084 70.51367,29.14084 z"
     style="font-style:normal;font-weight:700;font-size:72px;line-height:1;font-family:'Comfortaa Bold Alt2';font-variant-ligatures:none;text-align:center;text-anchor:middle;fill:#4a4c5d;stroke:#4a4c5d;stroke-width:0;stroke-linejoin:miter;stroke-miterlimit:2"
     id="path145290"
     sodipodi:nodetypes="sssssssss" /><path
     d="M 45.43842,95.3014 V 45.43841 h 49.863 V 95.3014 Z m 0,58.92899 v -49.86297 h 49.863 v 49.86297 z M 104.3674,95.3014 V 45.43841 h 49.86298 V 95.3014 Z m 0,58.92899 v -49.86297 h 49.86298 v 49.86297 z M 54.504416,86.235401 H 86.23541 V 54.50441 H 54.504416 Z m 58.928984,0 h 31.73097 V 54.50441 H 113.4334 Z m 0,58.929009 h 31.73097 V 113.43342 H 113.4334 Z m -58.928982,0 H 86.23541 V 113.43342 H 54.504416 Z M 113.4334,86.235401 Z m 0,27.198019 z m -27.19799,0 z m 0,-27.198019 z"
     id="path1"
     style="fill:#fcfcfc;fill-opacity:1;stroke-width:0.1511" /></svg>
